<svg width="654" height="654" viewBox="0 0 654 654" fill="none" xmlns="http://www.w3.org/2000/svg">
<path fill-rule="evenodd" clip-rule="evenodd" d="M631.63 0.527591C600.818 1.02446 566.263 5.71382 535.541 13.5689L529.495 15.1142L532.427 26.6268C543.362 69.5722 574.449 103.714 615.525 117.893C622.269 120.221 630.259 122.375 633.281 122.677L638.775 123.227L640.912 115.264C644.417 102.195 649.122 75.5058 651.23 56.7226C653.222 38.9836 654.483 2.24807 653.147 0.912079C652.752 0.516231 643.069 0.344099 631.63 0.527591ZM496.939 25.6186C415.15 54.8567 343.95 108.182 286.03 183.576C248.291 232.705 222.625 286.232 211.952 338.078L208.978 352.525L214.718 354.397C232.715 360.27 259.267 378.573 272.526 394.244C284.829 408.786 295.806 427.16 299.929 440.118L301.444 444.873L313.29 442.49C366.761 431.73 419.333 406.576 472.296 366.414C493.681 350.198 540.472 304.527 556.807 283.926C588.888 243.468 609.805 206.54 627.445 159.217C631.218 149.098 633.858 140.374 633.314 139.83C632.771 139.287 630.035 138.456 627.234 137.985C617.268 136.309 593.617 126.898 582.274 120.095C565.957 110.309 543.786 88.176 534.078 71.9813C526.188 58.8183 519.814 43.6441 516.538 30.2265C515.262 25.0073 514.005 20.521 513.743 20.2592C513.48 19.9963 505.919 22.4075 496.939 25.6186ZM507.034 178.854C523.462 211.625 511.129 252.024 478.927 270.918C457.514 283.482 427.923 283.05 406.853 269.869C397.61 264.086 386.841 252.521 381.785 242.946C356.532 195.122 392.879 137.278 446.715 139.614C473.034 140.756 495.145 155.139 507.034 178.854ZM228.557 218.029C221.721 219.415 207.678 223.23 197.347 226.506C125.884 249.171 63.2182 293.634 14.635 356.144C-3.57191 379.571 -3.35855 378.454 11.5693 372.245C37.8591 361.311 68.1529 354.387 97.2735 352.658C125.407 350.987 152.274 354.765 178.808 364.125L193.45 369.29L194.604 356.065C198.033 316.716 214.539 265.518 235.777 228.352C239.383 222.041 242.029 216.57 241.658 216.193C241.288 215.816 235.393 216.642 228.557 218.029ZM425.759 418.177C401.11 432.156 367.071 445.67 339.642 452.371C325.042 455.936 295.312 460.478 288.718 460.15C284.754 459.951 284.769 460.125 290.096 475.795C296.447 494.479 299.797 510.496 301.317 529.45C304.037 563.362 296.463 607.211 281.798 642.474C275.589 657.402 274.472 657.615 297.899 639.408C360.409 590.825 404.872 528.159 427.537 456.696C433.496 437.905 439.14 413.656 437.85 412.385C437.473 412.014 432.032 414.62 425.759 418.177ZM244.249 389.177C232.147 379.927 209.612 368.148 207.691 370.068C207.141 370.619 206.545 375.425 206.368 380.75L206.044 390.43L213.598 394.652C224.263 400.613 253.448 429.812 259.424 440.5L263.679 448.11L273.611 447.446C279.073 447.082 283.865 446.461 284.259 446.067C285.24 445.087 278.684 430.942 272.878 421.509C267.824 413.301 251.101 394.413 244.249 389.177ZM244.36 496.479C239.48 522.877 219.217 542.927 185.959 554.27L172.891 558.726L181.105 549.015C191.077 537.227 196.58 527.473 201.267 513.275C204.554 503.323 204.565 502.579 201.424 503.133C191.977 504.797 181.275 511.941 167.311 525.905C151.814 541.401 145.262 545.628 128.675 550.83C117.772 554.249 97.3488 557.102 95.5169 555.462C94.9262 554.934 96.5808 551.646 99.1909 548.158C101.803 544.669 107.19 533.841 111.165 524.098C122.402 496.543 127.199 489.152 143.229 474.685C156.327 462.865 156.705 462.386 159.378 454.239C162.413 444.988 161.842 442.743 157.533 446.983C153.707 450.75 143.986 454.268 135.861 454.825C127.605 455.393 120.602 457.61 114.479 461.592L109.756 464.666L111.266 457.929C114.039 445.557 119.244 436.857 130.558 425.678C138.661 417.669 142.641 414.693 148.769 412.056C160.461 407.023 158.242 406.786 144.88 411.64C116.306 422.019 99.3331 438.559 87.1917 467.856C84.7032 473.862 80.7602 481.339 78.4305 484.471L74.1947 490.164L83.7765 491.862C95.686 493.97 109.242 492.238 118.567 487.418C128.616 482.222 127.412 484.364 116.573 490.964C97.5457 502.551 75.3152 531.189 62.8398 560.183C55.4579 577.341 47.3048 613.54 50.1768 616.412C50.6953 616.93 52.6313 615.852 54.4807 614.015C58.6958 609.824 69.2063 605.963 89.9348 600.99C118.115 594.229 126.203 589.398 141.868 569.969C147.183 563.377 154.562 554.52 158.266 550.286L165.001 542.589L158.138 553.344C154.364 559.258 149.828 568.144 148.059 573.091C144.844 582.076 143.358 604.445 145.812 606.9C146.527 607.614 147.291 607.44 147.509 606.514C147.728 605.587 152.448 600.289 157.998 594.739C167.34 585.397 169.706 583.82 189.853 573.526C228.772 553.639 239.664 539.627 245.041 502.535C247.147 488.009 246.683 483.9 244.36 496.479Z" fill="#0066FF"/>
</svg>
